<svg xmlns="http://www.w3.org/2000/svg" xmlns:xlink="http://www.w3.org/1999/xlink" viewBox="0,0,256,256" width="96px" height="96px" fill-rule="nonzero"><g fill="#fcc419" fill-rule="nonzero" stroke="none" stroke-width="1" stroke-linecap="butt" stroke-linejoin="miter" stroke-miterlimit="10" stroke-dasharray="" stroke-dashoffset="0" font-family="none" font-weight="none" font-size="none" text-anchor="none" style="mix-blend-mode: normal"><g transform="scale(5.33333,5.33333)"><path d="M9,32c-4.4,0 -8,-3.6 -8,-8c0,-4.4 3.6,-8 8,-8c4.4,0 8,3.6 8,8c0,4.4 -3.6,8 -8,8zM9,18c-3.3,0 -6,2.7 -6,6c0,3.3 2.7,6 6,6c3.3,0 6,-2.7 6,-6c0,-3.3 -2.7,-6 -6,-6zM39,32c-4.4,0 -8,-3.6 -8,-8c0,-4.4 3.6,-8 8,-8c4.4,0 8,3.6 8,8c0,4.4 -3.6,8 -8,8zM39,18c-3.3,0 -6,2.7 -6,6c0,3.3 2.7,6 6,6c3.3,0 6,-2.7 6,-6c0,-3.3 -2.7,-6 -6,-6z"></path><path d="M29,32c-4.4,0 -8,-3.6 -8,-8c0,-4.4 3.6,-8 8,-8c4.4,0 8,3.6 8,8c0,4.4 -3.6,8 -8,8zM29,18c-3.3,0 -6,2.7 -6,6c0,3.3 2.7,6 6,6c3.3,0 6,-2.7 6,-6c0,-3.3 -2.7,-6 -6,-6z"></path><path d="M19,32c-4.4,0 -8,-3.6 -8,-8c0,-4.4 3.6,-8 8,-8c4.4,0 8,3.6 8,8c0,4.4 -3.6,8 -8,8zM19,18c-3.3,0 -6,2.7 -6,6c0,3.3 2.7,6 6,6c3.3,0 6,-2.7 6,-6c0,-3.3 -2.7,-6 -6,-6z"></path><path d="M14,20.7c0.6,1 1,2.1 1,3.3c0,1.2 -0.4,2.4 -1,3.3c-0.6,-1 -1,-2.1 -1,-3.3c0,-1.2 0.4,-2.4 1,-3.3M14,18.9l-0.8,1.3c-0.8,1.1 -1.2,2.4 -1.2,3.8c0,1.4 0.4,2.7 1.2,3.9l0.8,1.3l0.8,-1.3c0.8,-1.2 1.2,-2.5 1.2,-3.9c0,-1.4 -0.4,-2.7 -1.2,-3.9l-0.8,-1.2zM24,20.7c0.6,1 1,2.1 1,3.3c0,1.2 -0.4,2.4 -1,3.3c-0.6,-1 -1,-2.1 -1,-3.3c0,-1.2 0.4,-2.4 1,-3.3M24,18.9l-0.8,1.3c-0.8,1.1 -1.2,2.4 -1.2,3.8c0,1.4 0.4,2.7 1.2,3.9l0.8,1.3l0.8,-1.3c0.8,-1.2 1.2,-2.5 1.2,-3.9c0,-1.4 -0.4,-2.7 -1.2,-3.9l-0.8,-1.2zM34,20.7c0.6,1 1,2.1 1,3.3c0,1.2 -0.4,2.4 -1,3.3c-0.6,-1 -1,-2.1 -1,-3.3c0,-1.2 0.4,-2.4 1,-3.3M34,18.9l-0.8,1.3c-0.8,1.1 -1.2,2.4 -1.2,3.8c0,1.4 0.4,2.7 1.2,3.9l0.8,1.3l0.8,-1.3c0.8,-1.2 1.2,-2.5 1.2,-3.9c0,-1.4 -0.4,-2.7 -1.2,-3.9l-0.8,-1.2z"></path></g></g></svg>