<svg xmlns="http://www.w3.org/2000/svg" xmlns:xlink="http://www.w3.org/1999/xlink" viewBox="0,0,256,256" width="100px" height="100px" fill-rule="nonzero"><g fill="#f4efef" fill-rule="nonzero" stroke="none" stroke-width="1" stroke-linecap="butt" stroke-linejoin="miter" stroke-miterlimit="10" stroke-dasharray="" stroke-dashoffset="0" font-family="none" font-weight="none" font-size="none" text-anchor="none" style="mix-blend-mode: normal"><g transform="scale(5.12,5.12)"><path d="M11,3c-4.94545,0 -9,4.05455 -9,9c0,4.94545 4.05455,9 9,9h15v-3v-2v-5h-12v4h-1c-1.65455,0 -3,-1.34545 -3,-3c0,-1.65455 1.34545,-3 3,-3h13h6v12h8v-12h8v-6h-1h-21zM11,5h13v2h-11c-2.74545,0 -5,2.25455 -5,5c0,2.74546 2.25455,5 5,5h3h5v-2h-5v-2h8v3v2v1h-13c-3.85455,0 -7,-3.14545 -7,-7c0,-3.85455 3.14545,-7 7,-7zM26,5h20v2h-8v12h-4v-12h-8zM2,23v7h2v9h-2v7h15v-7h-2v-2h13.45703l2.51172,3.85547l0.00781,0.01172c1.10676,1.60984 2.07466,2.96875 3.75195,3.86523c1.67731,0.89648 3.89927,1.26758 7.4707,1.26758h5.80078v-7h-4.5c-1.33495,0 -2.1435,-0.3873 -2.83789,-1c-0.27967,-0.24677 -0.47664,-0.67531 -0.71875,-1h1.05664c3.84546,0 7,-3.15454 7,-7c0,-3.84546 -3.15454,-7 -7,-7zM4,25h37c2.75455,0 5,2.24545 5,5c0,2.75455 -2.24545,5 -5,5h-4.69141l0.81445,1.48242c0.56233,1.02242 1.20923,2.13028 2.21484,3.01758c1.00561,0.8873 2.39706,1.5 4.16211,1.5h2.5v3h-3.80078c-3.42857,0 -5.30464,-0.37774 -6.52734,-1.03125c-1.21678,-0.65035 -1.94873,-1.63816 -3.0332,-3.21484l-0.00586,-0.00977c-0.0028,-0.004 -0.00501,-0.00567 -0.00781,-0.00977l-3.08203,-4.73437h-16.54297v6h2v3h-11v-3h2v-13h-2zM13,27v6h25c1.64545,0 3,-1.35455 3,-3c0,-1.64545 -1.35455,-3 -3,-3zM15,29h23c0.55454,0 1,0.44545 1,1c0,0.55455 -0.44546,1 -1,1h-23z"></path></g></g></svg>